<svg width="30" height="47" viewBox="0 0 30 47" fill="none" xmlns="http://www.w3.org/2000/svg">
<path d="M15 32.4776C17.3438 32.4776 19.3363 31.4631 20.9775 29.434C22.6175 27.4034 23.4375 24.9382 23.4375 22.0384C23.4375 19.1386 22.6175 16.6734 20.9775 14.6428C19.3363 12.6137 17.3438 11.5992 15 11.5992V15.0789C16.5625 15.0789 17.8906 15.7555 18.9844 17.1088C20.0781 18.462 20.625 20.1052 20.625 22.0384C20.625 23.9716 20.0781 25.6148 18.9844 26.968C17.8906 28.3213 16.5625 28.9979 15 28.9979C13.9688 28.9979 13.0081 28.6692 12.1181 28.012C11.2269 27.3547 10.5313 26.4654 10.0313 25.3442L7.59375 27.026C8.34375 28.7272 9.375 30.0611 10.6875 31.0277C12 31.9943 13.4375 32.4776 15 32.4776ZM7.96875 24.0103C8.375 24.0103 8.71125 23.8455 8.9775 23.5161C9.2425 23.1883 9.375 22.773 9.375 22.2704C9.375 21.7678 9.2425 21.3517 8.9775 21.0223C8.71125 20.6944 8.375 20.5305 7.96875 20.5305C7.5625 20.5305 7.22687 20.6944 6.96187 21.0223C6.69562 21.3517 6.5625 21.7678 6.5625 22.2704C6.5625 22.773 6.69562 23.1883 6.96187 23.5161C7.22687 23.8455 7.5625 24.0103 7.96875 24.0103ZM9 19.1386C9.40625 19.1386 9.7425 18.9739 10.0088 18.6445C10.2738 18.3166 10.4062 17.9014 10.4062 17.3987C10.4062 16.8961 10.2738 16.4801 10.0088 16.1507C9.7425 15.8228 9.40625 15.6589 9 15.6589C8.59375 15.6589 8.2575 15.8228 7.99125 16.1507C7.72625 16.4801 7.59375 16.8961 7.59375 17.3987C7.59375 17.9014 7.72625 18.3166 7.99125 18.6445C8.2575 18.9739 8.59375 19.1386 9 19.1386ZM11.7188 15.9488C12.125 15.9488 12.4613 15.7841 12.7275 15.4547C12.9925 15.1268 13.125 14.7116 13.125 14.209C13.125 13.7063 12.9925 13.2911 12.7275 12.9632C12.4613 12.6338 12.125 12.4691 11.7188 12.4691C11.3125 12.4691 10.9769 12.6338 10.7119 12.9632C10.4456 13.2911 10.3125 13.7063 10.3125 14.209C10.3125 14.7116 10.4456 15.1268 10.7119 15.4547C10.9769 15.7841 11.3125 15.9488 11.7188 15.9488ZM15 46.3966C10.6562 45.0434 7.07062 41.9596 4.24312 37.1451C1.41438 32.3323 0 26.9874 0 21.1105V6.95949L15 0L30 6.95949V21.1105C30 26.9874 28.5863 32.3323 25.7588 37.1451C22.93 41.9596 19.3438 45.0434 15 46.3966ZM15 41.525C18.25 40.2491 20.9375 37.6973 23.0625 33.8695C25.1875 30.0418 26.25 25.7888 26.25 21.1105V10.1493L15 4.92964L3.75 10.1493V21.1105C3.75 25.7888 4.8125 30.0418 6.9375 33.8695C9.0625 37.6973 11.75 40.2491 15 41.525Z" fill="#F44322"/>
</svg>
