<svg width="48" height="48" viewBox="0 0 48 48" fill="none" xmlns="http://www.w3.org/2000/svg">
<circle cx="24" cy="24" r="24" fill="#F2F2F2"/>
<path d="M24.0199 32.53C21.6899 32.53 19.3599 32.16 17.1499 31.42C16.3099 31.13 15.6699 30.54 15.3899 29.77C15.0999 29 15.1999 28.15 15.6599 27.39L16.8099 25.48C17.0499 25.08 17.2699 24.28 17.2699 23.81V20.92C17.2699 17.2 20.2999 14.17 24.0199 14.17C27.7399 14.17 30.7699 17.2 30.7699 20.92V23.81C30.7699 24.27 30.9899 25.08 31.2299 25.49L32.3699 27.39C32.7999 28.11 32.8799 28.98 32.5899 29.77C32.2999 30.56 31.6699 31.16 30.8799 31.42C28.6799 32.16 26.3499 32.53 24.0199 32.53ZM24.0199 15.67C21.1299 15.67 18.7699 18.02 18.7699 20.92V23.81C18.7699 24.54 18.4699 25.62 18.0999 26.25L16.9499 28.16C16.7299 28.53 16.6699 28.92 16.7999 29.25C16.9199 29.59 17.2199 29.85 17.6299 29.99C21.8099 31.39 26.2399 31.39 30.4199 29.99C30.7799 29.87 31.0599 29.6 31.1899 29.24C31.3199 28.88 31.2899 28.49 31.0899 28.16L29.9399 26.25C29.5599 25.6 29.2699 24.53 29.2699 23.8V20.92C29.2699 18.02 26.9199 15.67 24.0199 15.67Z" fill="#453F3C"/>
<path d="M25.8801 15.9401C25.8101 15.9401 25.7401 15.9301 25.6701 15.9101C25.3801 15.8301 25.1001 15.7701 24.8301 15.7301C23.9801 15.6201 23.1601 15.6801 22.3901 15.9101C22.1101 16.0001 21.8101 15.9101 21.6201 15.7001C21.4301 15.4901 21.3701 15.1901 21.4801 14.9201C21.8901 13.8701 22.8901 13.1801 24.0301 13.1801C25.1701 13.1801 26.1701 13.8601 26.5801 14.9201C26.6801 15.1901 26.6301 15.4901 26.4401 15.7001C26.2901 15.8601 26.0801 15.9401 25.8801 15.9401Z" fill="#453F3C"/>
<path d="M24.02 34.8101C23.03 34.8101 22.07 34.4101 21.37 33.7101C20.67 33.0101 20.27 32.0501 20.27 31.0601H21.77C21.77 31.6501 22.01 32.2301 22.43 32.6501C22.85 33.0701 23.43 33.3101 24.02 33.3101C25.26 33.3101 26.27 32.3001 26.27 31.0601H27.77C27.77 33.1301 26.09 34.8101 24.02 34.8101Z" fill="#453F3C"/>
</svg>
