<svg width="72" height="72" viewBox="0 0 72 72" fill="none" xmlns="http://www.w3.org/2000/svg">
<path d="M16.5 21C16.5 19.0109 17.2902 17.1032 18.6967 15.6967C20.1032 14.2902 22.0109 13.5 24 13.5C25.9891 13.5 27.8968 14.2902 29.3033 15.6967C30.7098 17.1032 31.5 19.0109 31.5 21C31.5 22.9891 30.7098 24.8968 29.3033 26.3033C27.8968 27.7098 25.9891 28.5 24 28.5C22.0109 28.5 20.1032 27.7098 18.6967 26.3033C17.2902 24.8968 16.5 22.9891 16.5 21ZM24 9C20.8174 9 17.7652 10.2643 15.5147 12.5147C13.2643 14.7652 12 17.8174 12 21C12 24.1826 13.2643 27.2348 15.5147 29.4853C17.7652 31.7357 20.8174 33 24 33C27.1826 33 30.2348 31.7357 32.4853 29.4853C34.7357 27.2348 36 24.1826 36 21C36 17.8174 34.7357 14.7652 32.4853 12.5147C30.2348 10.2643 27.1826 9 24 9ZM46.5 24C46.5 22.8065 46.9741 21.6619 47.818 20.818C48.6619 19.9741 49.8065 19.5 51 19.5C52.1935 19.5 53.3381 19.9741 54.182 20.818C55.0259 21.6619 55.5 22.8065 55.5 24C55.5 25.1935 55.0259 26.3381 54.182 27.182C53.3381 28.0259 52.1935 28.5 51 28.5C49.8065 28.5 48.6619 28.0259 47.818 27.182C46.9741 26.3381 46.5 25.1935 46.5 24ZM51 15C48.6131 15 46.3239 15.9482 44.636 17.636C42.9482 19.3239 42 21.6131 42 24C42 26.3869 42.9482 28.6761 44.636 30.364C46.3239 32.0518 48.6131 33 51 33C53.3869 33 55.6761 32.0518 57.364 30.364C59.0518 28.6761 60 26.3869 60 24C60 21.6131 59.0518 19.3239 57.364 17.636C55.6761 15.9482 53.3869 15 51 15ZM12.75 39C10.9598 39 9.2429 39.7112 7.97703 40.977C6.71116 42.2429 6 43.9598 6 45.75V46.584C6.00353 46.7926 6.01754 47.0008 6.042 47.208C6.28974 49.4403 7.09211 51.5751 8.376 53.418C10.83 56.922 15.516 60 24 60C32.484 60 37.17 56.925 39.624 53.415C40.9082 51.5723 41.7106 49.4374 41.958 47.205C41.9792 46.9985 41.9932 46.7914 42 46.584V45.75C42 43.9598 41.2888 42.2429 40.023 40.977C38.7571 39.7112 37.0402 39 35.25 39H12.75ZM10.5 46.521V45.75C10.5 45.1533 10.7371 44.581 11.159 44.159C11.581 43.7371 12.1533 43.5 12.75 43.5H35.25C35.8467 43.5 36.419 43.7371 36.841 44.159C37.2629 44.581 37.5 45.1533 37.5 45.75V46.521L37.479 46.761C37.308 48.2252 36.7784 49.6246 35.937 50.835C34.458 52.95 31.266 55.5 24 55.5C16.734 55.5 13.542 52.95 12.06 50.835C11.2192 49.6234 10.6906 48.223 10.521 46.758C10.5119 46.6792 10.5049 46.6002 10.5 46.521ZM54.576 41.985L56.004 38.37C56.73 36.528 58.764 35.571 60.648 36.186L61.941 36.609C64.113 37.32 65.919 39.027 65.991 41.316C66.291 50.646 58.563 64.065 50.352 68.481C48.333 69.567 45.948 68.85 44.247 67.308L43.236 66.393C42.5291 65.753 42.0918 64.8684 42.0127 63.9181C41.9336 62.9678 42.2186 62.023 42.81 61.275L45.21 58.245C46.08 57.144 47.511 56.655 48.87 56.985L52.746 57.924C56.055 55.734 57.828 52.656 58.068 48.687L55.317 45.795C54.8434 45.2965 54.522 44.6731 54.3907 43.9981C54.2594 43.3231 54.3237 42.6247 54.576 41.985Z" fill="#F44322"/>
</svg>
