<svg width="72" height="72" viewBox="0 0 72 72" fill="none" xmlns="http://www.w3.org/2000/svg">
<path d="M36 0C39.3047 0 42.4922 0.421875 45.5625 1.26562C48.6328 2.10938 51.5039 3.31641 54.1758 4.88672C56.8477 6.45703 59.2734 8.33203 61.4531 10.5117C63.6328 12.6914 65.5078 15.1289 67.0781 17.8242C68.6484 20.5195 69.8555 23.3906 70.6992 26.4375C71.543 29.4844 71.9766 32.6719 72 36C72 39.3047 71.5781 42.4922 70.7344 45.5625C69.8906 48.6328 68.6836 51.5039 67.1133 54.1758C65.543 56.8477 63.668 59.2734 61.4883 61.4531C59.3086 63.6328 56.8711 65.5078 54.1758 67.0781C51.4805 68.6484 48.6094 69.8555 45.5625 70.6992C42.5156 71.543 39.3281 71.9766 36 72C32.6953 72 29.5078 71.5781 26.4375 70.7344C23.3672 69.8906 20.4961 68.6836 17.8242 67.1133C15.1523 65.543 12.7266 63.668 10.5469 61.4883C8.36719 59.3086 6.49219 56.8711 4.92188 54.1758C3.35156 51.4805 2.14453 48.6211 1.30078 45.5977C0.457031 42.5742 0.0234375 39.375 0 36C0 32.6953 0.421875 29.5078 1.26562 26.4375C2.10938 23.3672 3.31641 20.4961 4.88672 17.8242C6.45703 15.1523 8.33203 12.7266 10.5117 10.5469C12.6914 8.36719 15.1289 6.49219 17.8242 4.92188C20.5195 3.35156 23.3789 2.14453 26.4023 1.30078C29.4258 0.457031 32.625 0.0234375 36 0ZM36 67.5C38.8828 67.5 41.6602 67.125 44.332 66.375C47.0039 65.625 49.5117 64.5703 51.8555 63.2109C54.1992 61.8516 56.332 60.1992 58.2539 58.2539C60.1758 56.3086 61.8164 54.1875 63.1758 51.8906C64.5352 49.5938 65.6016 47.0859 66.375 44.3672C67.1484 41.6484 67.5234 38.8594 67.5 36C67.5 33.1172 67.125 30.3398 66.375 27.668C65.625 24.9961 64.5703 22.4883 63.2109 20.1445C61.8516 17.8008 60.1992 15.668 58.2539 13.7461C56.3086 11.8242 54.1875 10.1836 51.8906 8.82422C49.5938 7.46484 47.0859 6.39844 44.3672 5.625C41.6484 4.85156 38.8594 4.47656 36 4.5C33.1172 4.5 30.3398 4.875 27.668 5.625C24.9961 6.375 22.4883 7.42969 20.1445 8.78906C17.8008 10.1484 15.668 11.8008 13.7461 13.7461C11.8242 15.6914 10.1836 17.8125 8.82422 20.1094C7.46484 22.4062 6.39844 24.9141 5.625 27.6328C4.85156 30.3516 4.47656 33.1406 4.5 36C4.5 38.8828 4.875 41.6602 5.625 44.332C6.375 47.0039 7.42969 49.5117 8.78906 51.8555C10.1484 54.1992 11.8008 56.332 13.7461 58.2539C15.6914 60.1758 17.8125 61.8164 20.1094 63.1758C22.4062 64.5352 24.9141 65.6016 27.6328 66.375C30.3516 67.1484 33.1406 67.5234 36 67.5ZM56.9883 36.5625L58.6758 31.5H61.3125L58.3242 40.5H55.6875L54 35.4375L52.3125 40.5H49.6758L46.6875 31.5H49.3242L51.0117 36.5625L52.6992 31.5H55.3008L56.9883 36.5625ZM40.6758 31.5H43.3125L40.3242 40.5H37.6875L36 35.4375L34.3125 40.5H31.6758L28.6875 31.5H31.3242L33.0117 36.5625L34.6992 31.5H37.3008L38.9883 36.5625L40.6758 31.5ZM22.6758 31.5H25.3125L22.3242 40.5H19.6875L18 35.4375L16.3125 40.5H13.6758L10.6875 31.5H13.3242L15.0117 36.5625L16.6992 31.5H19.3008L20.9883 36.5625L22.6758 31.5Z" fill="#F44322"/>
</svg>
