<svg width="159" height="159" viewBox="0 0 159 159" fill="none" xmlns="http://www.w3.org/2000/svg">
<circle cx="79.5" cy="79.5" r="79.5" fill="white"/>
<rect width="79.5" height="79.5" transform="translate(39.75 39.75)" fill="white"/>
<path d="M80.0285 78.2412C79.9291 78.2412 79.8629 78.2412 79.7635 78.2412C79.5979 78.2081 79.366 78.2081 79.1673 78.2412C69.561 77.9431 62.3066 70.3906 62.3066 61.0825C62.3066 51.6088 70.0248 43.8906 79.4985 43.8906C88.9723 43.8906 96.6904 51.6088 96.6904 61.0825C96.6573 70.3906 89.3698 77.9431 80.1279 78.2412C80.0948 78.2412 80.0616 78.2412 80.0285 78.2412ZM79.4985 48.8594C72.7741 48.8594 67.2754 54.3581 67.2754 61.0825C67.2754 67.7075 72.4429 73.0406 79.0348 73.2725C79.2004 73.2394 79.6641 73.2394 80.0948 73.2725C86.5873 72.9744 91.6885 67.6413 91.7216 61.0825C91.7216 54.3581 86.2229 48.8594 79.4985 48.8594Z" fill="#453F3C"/>
<path d="M80.062 114.447C73.5695 114.447 67.0438 112.791 62.1082 109.478C57.5038 106.431 54.9863 102.257 54.9863 97.7187C54.9863 93.1806 57.5038 88.9738 62.1082 85.8931C72.0457 79.3013 88.1445 79.3013 98.0157 85.8931C102.587 88.9406 105.138 93.1144 105.138 97.6525C105.138 102.191 102.62 106.397 98.0157 109.478C93.047 112.791 86.5545 114.447 80.062 114.447ZM64.8576 90.0669C61.6776 92.1869 59.9551 94.9031 59.9551 97.7519C59.9551 100.567 61.7107 103.284 64.8576 105.371C73.1057 110.902 87.0182 110.902 95.2663 105.371C98.4463 103.251 100.169 100.534 100.169 97.6856C100.169 94.87 98.4132 92.1537 95.2663 90.0669C87.0182 84.5681 73.1057 84.5681 64.8576 90.0669Z" fill="#453F3C"/>
</svg>
