<svg width="51" height="51" viewBox="0 0 51 51" fill="none" xmlns="http://www.w3.org/2000/svg">
<circle cx="25.5" cy="25.5" r="25.5" fill="#F44322"/>
<path d="M12 32.3874V36.4001C12 36.6322 12.0922 36.8547 12.2563 37.0188C12.4204 37.1829 12.6429 37.2751 12.875 37.2751H16.8965C17.1281 37.2751 17.3503 37.1832 17.5143 37.0196L34.0483 20.4856L28.7983 15.2356L12.2573 31.7696C12.093 31.9333 12.0005 32.1555 12 32.3874ZM30.9648 13.0674L36.2148 18.3174L38.7698 15.7624C39.0978 15.4342 39.2821 14.9892 39.2821 14.5251C39.2821 14.0611 39.0978 13.616 38.7698 13.2879L35.996 10.5124C35.6678 10.1843 35.2228 10 34.7588 10C34.2947 10 33.8497 10.1843 33.5215 10.5124L30.9648 13.0674Z" fill="white"/>
</svg>
