<svg width="164" height="131" viewBox="0 0 164 131" fill="none" xmlns="http://www.w3.org/2000/svg">
<rect width="163.75" height="131" fill="white"/>
<path fill-rule="evenodd" clip-rule="evenodd" d="M41.265 87.77H100.87C101.207 87.77 101.536 87.7336 101.853 87.6645C102.169 87.7336 102.498 87.77 102.835 87.77H136.895C139.427 87.77 141.48 85.7173 141.48 83.185C141.48 80.6528 139.427 78.6 136.895 78.6H132.965C130.433 78.6 128.38 76.5473 128.38 74.015C128.38 71.4828 130.433 69.43 132.965 69.43H145.41C147.942 69.43 149.995 67.3773 149.995 64.845C149.995 62.3128 147.942 60.26 145.41 60.26H131C133.532 60.26 135.585 58.2073 135.585 55.675C135.585 53.1428 133.532 51.09 131 51.09H89.08C91.6122 51.09 93.665 49.0373 93.665 46.505C93.665 43.9728 91.6122 41.92 89.08 41.92H51.745C49.2128 41.92 47.16 43.9728 47.16 46.505C47.16 49.0373 49.2128 51.09 51.745 51.09H25.545C23.0128 51.09 20.96 53.1428 20.96 55.675C20.96 58.2073 23.0128 60.26 25.545 60.26H41.92C44.4522 60.26 46.505 62.3128 46.505 64.845C46.505 67.3773 44.4522 69.43 41.92 69.43H15.72C13.1878 69.43 11.135 71.4828 11.135 74.015C11.135 76.5473 13.1878 78.6 15.72 78.6H41.265C38.7328 78.6 36.68 80.6528 36.68 83.185C36.68 85.7173 38.7328 87.77 41.265 87.77ZM148.03 87.77C150.562 87.77 152.615 85.7172 152.615 83.185C152.615 80.6528 150.562 78.6 148.03 78.6C145.498 78.6 143.445 80.6528 143.445 83.185C143.445 85.7172 145.498 87.77 148.03 87.77Z" fill="#FCD4C4" fill-opacity="0.3"/>
<path fill-rule="evenodd" clip-rule="evenodd" d="M74.0927 73.5608C74.0415 73.9232 74.015 74.2935 74.015 74.67C74.015 79.0109 77.5341 82.53 81.875 82.53C86.216 82.53 89.735 79.0109 89.735 74.67C89.735 74.2935 89.7086 73.9232 89.6574 73.5608H108.73V91.045C108.73 92.1302 107.85 93.01 106.765 93.01H56.985C55.8998 93.01 55.02 92.1302 55.02 91.045V73.5608H74.0927Z" fill="white"/>
<path fill-rule="evenodd" clip-rule="evenodd" d="M90.39 73.3601C90.39 78.0628 86.5777 81.8751 81.875 81.8751C77.1723 81.8751 73.36 78.0628 73.36 73.3601C73.36 73.2077 73.364 73.0563 73.3719 72.9059H55.02L61.2821 54.3905C61.5521 53.5923 62.3009 53.0551 63.1435 53.0551H100.607C101.449 53.0551 102.198 53.5923 102.468 54.3905L108.73 72.9059H90.3781C90.386 73.0563 90.39 73.2077 90.39 73.3601Z" fill="white"/>
<path fill-rule="evenodd" clip-rule="evenodd" d="M89.1439 73.9852C89.1439 77.6191 85.8895 81.22 81.875 81.22C77.8605 81.22 74.6061 77.6191 74.6061 73.9852C74.6061 73.8674 74.6096 73.0954 74.6163 72.9792H60.915L66.2607 59.9819C66.4912 59.3651 67.1304 58.95 67.8497 58.95H95.9003C96.6197 58.95 97.2589 59.3651 97.4894 59.9819L102.835 72.9792H89.1338C89.1405 73.0954 89.1439 73.8674 89.1439 73.9852Z" fill="#F46F3B" fill-opacity="0.3"/>
<path fill-rule="evenodd" clip-rule="evenodd" d="M55.8389 73.0406V90.39C55.8389 91.0231 56.3521 91.5363 56.9851 91.5363H106.765C107.398 91.5363 107.911 91.0231 107.911 90.39V73.0406L101.692 54.6528C101.535 54.1872 101.098 53.8738 100.607 53.8738H63.1436C62.6521 53.8738 62.2153 54.1872 62.0578 54.6528L55.8389 73.0406Z" stroke="#F44322" stroke-width="1.6375"/>
<path d="M64.1899 72.705C66.7683 72.705 69.551 72.705 72.5378 72.705C73.7668 72.705 73.7668 73.5686 73.7668 74.015C73.7668 78.3559 77.3668 81.875 81.8076 81.875C86.2484 81.875 89.8484 78.3559 89.8484 74.015C89.8484 73.5686 89.8484 72.705 91.0774 72.705H107.42M59.3257 72.705H60.9149H59.3257Z" stroke="#F44322" stroke-width="1.6375" stroke-linecap="round" stroke-linejoin="round"/>
<path d="M98.3152 38.1883L91.0449 46.3451M81.2852 35.37V46.3451V35.37ZM64.1899 38.1883L71.4602 46.3451L64.1899 38.1883Z" stroke="#F44322" stroke-width="1.6375" stroke-linecap="round" stroke-linejoin="round"/>
</svg>
