<svg width="118" height="26" viewBox="0 0 118 26" fill="none" xmlns="http://www.w3.org/2000/svg">
<path d="M1 24.3842L6.86392 11.8567H30.8527L36.9832 24.9172L1 24.3842Z" stroke="#D93F22" stroke-width="0.533084"/>
<path d="M4.46484 16.9211C5.35332 17.0099 7.82327 16.6545 10.5953 14.5222C11.5726 14.2556 14.0071 14.0424 15.9262 15.3218C17.7031 18.7868 23.9224 24.5975 34.5841 20.1196M24.189 12.1233C24.0113 13.7225 25.4151 16.7611 32.4518 16.1214" stroke="#F44322" stroke-width="0.533084" stroke-dasharray="1.07 1.07"/>
<path d="M13.2607 11.8567V24.6507" stroke="#F44322" stroke-width="0.533084"/>
<path d="M21.6814 7.49044L16.6877 17.1657L11.538 6.86627C10.2896 2.37199 13.9308 0.416142 15.9075 0C21.5253 -1.34452e-05 22.3056 4.0573 21.6814 7.49044Z" fill="#F44322"/>
<circle cx="16.5882" cy="5.17342" r="2.42757" fill="white"/>
<path d="M42.252 25.0966C41.859 25.0966 41.56 24.9941 41.355 24.7891C41.1499 24.567 41.0474 24.2594 41.0474 23.8664V8.87331H35.4346C35.11 8.87331 34.8537 8.78788 34.6657 8.61701C34.4778 8.42907 34.3838 8.17277 34.3838 7.84814C34.3838 7.5235 34.4778 7.27575 34.6657 7.10489C34.8537 6.93402 35.11 6.84859 35.4346 6.84859H49.0437C49.3855 6.84859 49.6418 6.93402 49.8126 7.10489C50.0006 7.27575 50.0945 7.5235 50.0945 7.84814C50.0945 8.17277 50.0006 8.42907 49.8126 8.61701C49.6418 8.78788 49.3855 8.87331 49.0437 8.87331H43.4309V23.8664C43.4309 24.2594 43.3284 24.567 43.1234 24.7891C42.9354 24.9941 42.645 25.0966 42.252 25.0966Z" fill="#F44322"/>
<path d="M51.1267 25.0966C50.7337 25.0966 50.4347 24.9941 50.2297 24.7891C50.0247 24.5841 49.9221 24.2851 49.9221 23.8921V13.4353C49.9221 13.0423 50.0247 12.7519 50.2297 12.5639C50.4347 12.3589 50.7167 12.2564 51.0755 12.2564C51.4343 12.2564 51.7077 12.3589 51.8956 12.5639C52.1006 12.7519 52.2032 13.0423 52.2032 13.4353V15.4088H51.9469C52.2202 14.3836 52.7328 13.6062 53.4846 13.0765C54.2364 12.5468 55.1847 12.2478 56.3295 12.1795C56.6028 12.1624 56.825 12.2307 56.9958 12.3845C57.1667 12.5212 57.2607 12.7604 57.2778 13.1021C57.2948 13.4268 57.218 13.6916 57.0471 13.8966C56.8762 14.0846 56.6114 14.1957 56.2526 14.2298L55.7913 14.2555C54.6636 14.3751 53.7922 14.7424 53.1771 15.3575C52.5791 15.9726 52.28 16.8184 52.28 17.8948V23.8921C52.28 24.2851 52.1775 24.5841 51.9725 24.7891C51.7845 24.9941 51.5026 25.0966 51.1267 25.0966Z" fill="#F44322"/>
<path d="M63.1302 25.1479C62.2759 25.1479 61.4985 24.977 60.798 24.6353C60.1145 24.2936 59.5763 23.8323 59.1833 23.2513C58.8074 22.6704 58.6195 22.0211 58.6195 21.3035C58.6195 20.3809 58.8501 19.6547 59.3115 19.125C59.7728 18.5954 60.5502 18.2195 61.6437 17.9973C62.7373 17.7581 64.2067 17.6385 66.052 17.6385H67.2566V19.125H66.1032C64.7876 19.125 63.7453 19.1848 62.9765 19.3044C62.2247 19.424 61.695 19.6376 61.3874 19.9452C61.0799 20.2356 60.9261 20.6457 60.9261 21.1754C60.9261 21.8417 61.1568 22.3885 61.6181 22.8156C62.0965 23.2428 62.7458 23.4564 63.5659 23.4564C64.2152 23.4564 64.7876 23.3026 65.2831 22.995C65.7786 22.6704 66.1716 22.2433 66.4621 21.7136C66.7525 21.1668 66.8977 20.5432 66.8977 19.8426V16.8953C66.8977 15.8872 66.6927 15.161 66.2826 14.7168C65.8726 14.2555 65.1806 14.0248 64.2067 14.0248C63.6428 14.0248 63.0619 14.1017 62.4639 14.2555C61.8659 14.4092 61.2422 14.6484 60.5929 14.9731C60.3366 15.0927 60.1145 15.1354 59.9266 15.1012C59.7386 15.05 59.5849 14.9474 59.4653 14.7937C59.3627 14.6228 59.3029 14.4434 59.2858 14.2555C59.2858 14.0504 59.3286 13.8539 59.414 13.666C59.5165 13.478 59.6874 13.3413 59.9266 13.2559C60.6784 12.88 61.4216 12.6152 62.1563 12.4614C62.9081 12.2905 63.6087 12.2051 64.2579 12.2051C65.3685 12.2051 66.2826 12.3845 67.0003 12.7433C67.7179 13.0851 68.2561 13.6233 68.6149 14.358C68.9737 15.0756 69.1531 15.9983 69.1531 17.1259V23.8921C69.1531 24.2851 69.0592 24.5841 68.8712 24.7891C68.6833 24.9941 68.4099 25.0966 68.0511 25.0966C67.7093 25.0966 67.436 24.9941 67.2309 24.7891C67.043 24.5841 66.949 24.2851 66.949 23.8921V22.0724H67.1797C67.043 22.7046 66.7867 23.2513 66.4108 23.7127C66.0349 24.174 65.565 24.5328 65.0012 24.7891C64.4544 25.0283 63.8308 25.1479 63.1302 25.1479Z" fill="#F44322"/>
<path d="M78.2311 25.1479C76.9667 25.1479 75.8732 24.8831 74.9506 24.3534C74.0279 23.8066 73.3188 23.0463 72.8233 22.0724C72.3278 21.0814 72.0801 19.9195 72.0801 18.5868C72.0801 17.5958 72.2168 16.7073 72.4901 15.9214C72.7806 15.1354 73.1907 14.469 73.7203 13.9223C74.25 13.3584 74.8907 12.9313 75.6425 12.6408C76.4114 12.3503 77.2743 12.2051 78.2311 12.2051C78.8291 12.2051 79.4613 12.2991 80.1277 12.487C80.794 12.675 81.4091 12.9825 81.973 13.4097C82.1609 13.5464 82.2805 13.7087 82.3318 13.8966C82.383 14.0675 82.383 14.2469 82.3318 14.4349C82.2976 14.6228 82.2122 14.7851 82.0755 14.9218C81.9559 15.0414 81.7936 15.1098 81.5885 15.1269C81.4006 15.1439 81.1956 15.0841 80.9734 14.9474C80.5634 14.6399 80.1277 14.4178 79.6663 14.2811C79.2221 14.1444 78.7949 14.0761 78.3849 14.0761C77.7527 14.0761 77.1888 14.1786 76.6933 14.3836C76.2149 14.5886 75.8049 14.8876 75.4631 15.2806C75.1385 15.6565 74.8908 16.1264 74.7199 16.6902C74.549 17.237 74.4636 17.8777 74.4636 18.6124C74.4636 20.0648 74.8053 21.2095 75.4888 22.0468C76.1722 22.8669 77.1376 23.277 78.3849 23.277C78.7949 23.277 79.2221 23.2172 79.6663 23.0976C80.1106 22.9609 80.5463 22.7388 80.9734 22.4312C81.1956 22.2945 81.4006 22.2433 81.5885 22.2774C81.7765 22.2945 81.9303 22.3714 82.0499 22.5081C82.1866 22.6277 82.272 22.7815 82.3062 22.9694C82.3403 23.1403 82.3232 23.3197 82.2549 23.5076C82.2036 23.6956 82.084 23.8494 81.8961 23.969C81.3493 24.379 80.7513 24.678 80.102 24.866C79.4528 25.0539 78.8291 25.1479 78.2311 25.1479Z" fill="#F44322"/>
<path d="M85.8903 25.0966C85.5314 25.0966 85.2495 24.9941 85.0445 24.7891C84.8395 24.5841 84.7369 24.2851 84.7369 23.8921V7.84814C84.7369 7.45515 84.8395 7.16469 85.0445 6.97674C85.2495 6.77171 85.5314 6.66919 85.8903 6.66919C86.2662 6.66919 86.5566 6.77171 86.7617 6.97674C86.9667 7.16469 87.0692 7.45515 87.0692 7.84814V17.9461H87.1205L92.1438 13.0509C92.4001 12.7946 92.6308 12.5981 92.8358 12.4614C93.0408 12.3247 93.3057 12.2564 93.6303 12.2564C93.9549 12.2564 94.2027 12.3418 94.3736 12.5127C94.5444 12.6664 94.6298 12.8715 94.6298 13.1278C94.6298 13.367 94.5102 13.6062 94.271 13.8454L88.9401 19.0225V17.8692L94.758 23.482C94.9972 23.7212 95.1083 23.969 95.0912 24.2253C95.0912 24.4815 94.9972 24.6951 94.8092 24.866C94.6384 25.0198 94.4077 25.0966 94.1173 25.0966C93.7755 25.0966 93.4936 25.0283 93.2715 24.8916C93.0665 24.7549 92.8273 24.5413 92.5539 24.2509L87.1205 19.125H87.0692V23.8921C87.0692 24.6951 86.6762 25.0966 85.8903 25.0966Z" fill="#F44322"/>
<path d="M105.588 25.0454C105.229 25.0454 104.947 24.9343 104.742 24.7122C104.537 24.4901 104.434 24.1825 104.434 23.7896V13.5635C104.434 13.1534 104.537 12.8458 104.742 12.6408C104.947 12.4187 105.229 12.3076 105.588 12.3076C105.964 12.3076 106.254 12.4187 106.459 12.6408C106.664 12.8458 106.767 13.1534 106.767 13.5635V23.7896C106.767 24.1825 106.664 24.4901 106.459 24.7122C106.271 24.9343 105.981 25.0454 105.588 25.0454ZM105.588 9.53967C105.126 9.53967 104.759 9.42007 104.486 9.18086C104.229 8.92457 104.101 8.59139 104.101 8.18132C104.101 7.73708 104.229 7.4039 104.486 7.18177C104.759 6.94257 105.126 6.82296 105.588 6.82296C106.083 6.82296 106.451 6.94257 106.69 7.18177C106.946 7.4039 107.074 7.73708 107.074 8.18132C107.074 8.59139 106.946 8.92457 106.69 9.18086C106.451 9.42007 106.083 9.53967 105.588 9.53967Z" fill="#F44322"/>
<path d="M115.694 25.1479C114.685 25.1479 113.84 24.9685 113.156 24.6097C112.49 24.2509 111.986 23.7298 111.644 23.0463C111.319 22.3629 111.157 21.5256 111.157 20.5346V14.2298H109.517C109.209 14.2298 108.97 14.1529 108.799 13.9992C108.628 13.8283 108.543 13.6062 108.543 13.3328C108.543 13.0423 108.628 12.8202 108.799 12.6664C108.97 12.5127 109.209 12.4358 109.517 12.4358H111.157V9.64219C111.157 9.2492 111.26 8.95874 111.465 8.77079C111.67 8.56576 111.96 8.46324 112.336 8.46324C112.712 8.46324 112.994 8.56576 113.182 8.77079C113.387 8.95874 113.489 9.2492 113.489 9.64219V12.4358H116.591C116.915 12.4358 117.163 12.5127 117.334 12.6664C117.505 12.8202 117.59 13.0423 117.59 13.3328C117.59 13.6062 117.505 13.8283 117.334 13.9992C117.163 14.1529 116.915 14.2298 116.591 14.2298H113.489V20.3296C113.489 21.2693 113.686 21.9784 114.079 22.4568C114.472 22.9352 115.121 23.1745 116.027 23.1745C116.351 23.1745 116.625 23.1488 116.847 23.0976C117.069 23.0292 117.265 22.995 117.436 22.995C117.59 22.978 117.718 23.0292 117.821 23.1488C117.94 23.2684 118 23.4905 118 23.8152C118 24.0544 117.957 24.2765 117.872 24.4815C117.804 24.6695 117.658 24.7976 117.436 24.866C117.231 24.9343 116.958 24.9941 116.616 25.0454C116.274 25.1137 115.967 25.1479 115.694 25.1479Z" fill="#F44322"/>
</svg>
