<svg width="40" height="36" viewBox="0 0 40 36" fill="none" xmlns="http://www.w3.org/2000/svg">
<path d="M23.6364 20.1512C22.1212 20.1512 20.8333 19.4982 19.7727 18.1921C18.7121 16.886 18.1818 15.3 18.1818 13.4341C18.1818 11.5683 18.7121 9.98232 19.7727 8.67622C20.8333 7.37012 22.1212 6.71707 23.6364 6.71707C25.1515 6.71707 26.4394 7.37012 27.5 8.67622C28.5606 9.98232 29.0909 11.5683 29.0909 13.4341C29.0909 15.3 28.5606 16.886 27.5 18.1921C26.4394 19.4982 25.1515 20.1512 23.6364 20.1512ZM10.9091 26.8683C9.90909 26.8683 9.05333 26.4294 8.34182 25.5517C7.62909 24.6755 7.27273 23.6217 7.27273 22.3902V4.47805C7.27273 3.24659 7.62909 2.19275 8.34182 1.31655C9.05333 0.438848 9.90909 0 10.9091 0H36.3636C37.3636 0 38.22 0.438848 38.9327 1.31655C39.6442 2.19275 40 3.24659 40 4.47805V22.3902C40 23.6217 39.6442 24.6755 38.9327 25.5517C38.22 26.4294 37.3636 26.8683 36.3636 26.8683H10.9091ZM14.5455 22.3902H32.7273C32.7273 21.1588 33.083 20.1042 33.7945 19.2265C34.5073 18.3503 35.3636 17.9122 36.3636 17.9122V8.9561C35.3636 8.9561 34.5073 8.51725 33.7945 7.63955C33.083 6.76335 32.7273 5.70951 32.7273 4.47805H14.5455C14.5455 5.70951 14.1891 6.76335 13.4764 7.63955C12.7648 8.51725 11.9091 8.9561 10.9091 8.9561V17.9122C11.9091 17.9122 12.7648 18.3503 13.4764 19.2265C14.1891 20.1042 14.5455 21.1588 14.5455 22.3902ZM34.5455 35.8244H3.63636C2.63636 35.8244 1.78061 35.3863 1.06909 34.5101C0.356364 33.6324 0 32.5778 0 31.3463V6.71707H3.63636V31.3463H34.5455V35.8244Z" fill="#F44322"/>
</svg>
