<svg width="72" height="76" viewBox="0 0 72 76" fill="none" xmlns="http://www.w3.org/2000/svg">
<path d="M67.5 52V64C67.5 65.9891 66.7098 67.8968 65.3033 69.3033C63.8968 70.7098 61.9891 71.5 60 71.5H48C46.0109 71.5 44.1032 70.7098 42.6967 69.3033C41.2902 67.8968 40.5 65.9891 40.5 64V52C40.5 50.0109 41.2902 48.1032 42.6967 46.6967C44.1032 45.2902 46.0109 44.5 48 44.5H60C61.9891 44.5 63.8968 45.2902 65.3033 46.6967C66.7098 48.1032 67.5 50.0109 67.5 52Z" stroke="#F44322" stroke-width="4.5" stroke-linecap="round" stroke-linejoin="round"/>
<path d="M51 58C50.11 58 49.24 58.2639 48.4999 58.7584C47.7599 59.2529 47.1831 59.9557 46.8425 60.7779C46.5019 61.6002 46.4128 62.505 46.5865 63.3779C46.7601 64.2508 47.1887 65.0526 47.818 65.682C48.4474 66.3113 49.2492 66.7399 50.1221 66.9135C50.995 67.0872 51.8998 66.9981 52.7221 66.6575C53.5443 66.3169 54.2471 65.7401 54.7416 65.0001C55.2361 64.26 55.5 63.39 55.5 62.5V49C55.9995 50.5 57.9 53.5 61.5 53.5" stroke="#F44322" stroke-width="4.5" stroke-linecap="round" stroke-linejoin="round"/>
<path d="M54 20.25H57.75L59.25 14.25H54V11.25C54 9.705 54 8.25 57 8.25H59.25V3.21C58.761 3.1455 56.9145 3 54.9645 3C50.892 3 48 5.4855 48 10.05V14.25H43.5V20.25H48V33H54V20.25Z" fill="#F44322"/>
<path d="M11.7 5H24.3C29.1 5 33 8.9 33 13.7V26.3C33 28.6074 32.0834 30.8203 30.4518 32.4518C28.8203 34.0834 26.6074 35 24.3 35H11.7C6.9 35 3 31.1 3 26.3V13.7C3 11.3926 3.9166 9.17974 5.54817 7.54817C7.17974 5.9166 9.39262 5 11.7 5ZM11.4 8C9.96783 8 8.59432 8.56893 7.58162 9.58162C6.56893 10.5943 6 11.9678 6 13.4V26.6C6 29.585 8.415 32 11.4 32H24.6C26.0322 32 27.4057 31.4311 28.4184 30.4184C29.4311 29.4057 30 28.0322 30 26.6V13.4C30 10.415 27.585 8 24.6 8H11.4ZM25.875 10.25C26.3723 10.25 26.8492 10.4475 27.2008 10.7992C27.5525 11.1508 27.75 11.6277 27.75 12.125C27.75 12.6223 27.5525 13.0992 27.2008 13.4508C26.8492 13.8025 26.3723 14 25.875 14C25.3777 14 24.9008 13.8025 24.5492 13.4508C24.1975 13.0992 24 12.6223 24 12.125C24 11.6277 24.1975 11.1508 24.5492 10.7992C24.9008 10.4475 25.3777 10.25 25.875 10.25ZM18 12.5C19.9891 12.5 21.8968 13.2902 23.3033 14.6967C24.7098 16.1032 25.5 18.0109 25.5 20C25.5 21.9891 24.7098 23.8968 23.3033 25.3033C21.8968 26.7098 19.9891 27.5 18 27.5C16.0109 27.5 14.1032 26.7098 12.6967 25.3033C11.2902 23.8968 10.5 21.9891 10.5 20C10.5 18.0109 11.2902 16.1032 12.6967 14.6967C14.1032 13.2902 16.0109 12.5 18 12.5ZM18 15.5C16.8065 15.5 15.6619 15.9741 14.818 16.818C13.9741 17.6619 13.5 18.8065 13.5 20C13.5 21.1935 13.9741 22.3381 14.818 23.182C15.6619 24.0259 16.8065 24.5 18 24.5C19.1935 24.5 20.3381 24.0259 21.182 23.182C22.0259 22.3381 22.5 21.1935 22.5 20C22.5 18.8065 22.0259 17.6619 21.182 16.818C20.3381 15.9741 19.1935 15.5 18 15.5Z" fill="#F44322"/>
<path fill-rule="evenodd" clip-rule="evenodd" d="M29.6295 46.9885C29.7592 46.8402 29.8584 46.6677 29.9215 46.4811C29.9846 46.2944 30.0103 46.0971 29.9971 45.9005C29.984 45.7039 29.9322 45.5118 29.8448 45.3352C29.7574 45.1586 29.6361 45.001 29.4878 44.8712C29.3394 44.7415 29.167 44.6423 28.9803 44.5792C28.7936 44.5162 28.5964 44.4905 28.3998 44.5036C28.2032 44.5168 28.0111 44.5685 27.8345 44.6559C27.6579 44.7433 27.5002 44.8647 27.3705 45.013L19.7055 53.773L13.2 45.1C13.0603 44.9137 12.8791 44.7625 12.6708 44.6584C12.4625 44.5542 12.2329 44.5 12 44.5H6C5.72143 44.5 5.44837 44.5776 5.2114 44.724C4.97444 44.8705 4.78294 45.08 4.65836 45.3292C4.53378 45.5783 4.48104 45.8573 4.50606 46.1347C4.53108 46.4122 4.63286 46.6771 4.8 46.9L14.4555 59.773L6.3705 69.013C6.24079 69.1613 6.14156 69.3338 6.07848 69.5204C6.01541 69.7071 5.98972 69.9044 6.00288 70.101C6.01604 70.2976 6.0678 70.4897 6.1552 70.6663C6.2426 70.8429 6.36392 71.0005 6.51225 71.1302C6.66058 71.26 6.833 71.3592 7.01968 71.4223C7.20636 71.4853 7.40363 71.511 7.60023 71.4979C7.79684 71.4847 7.98892 71.433 8.16553 71.3456C8.34213 71.2582 8.49979 71.1368 8.6295 70.9885L16.2945 62.227L22.8 70.9C22.9397 71.0863 23.1209 71.2375 23.3292 71.3416C23.5375 71.4458 23.7671 71.5 24 71.5H30C30.2786 71.5 30.5516 71.4224 30.7886 71.276C31.0256 71.1295 31.2171 70.92 31.3416 70.6708C31.4662 70.4217 31.519 70.1427 31.4939 69.8653C31.4689 69.5878 31.3671 69.3229 31.2 69.1L21.5445 56.227L29.6295 46.9885ZM24.75 68.5L9 47.5H11.25L27 68.5H24.75Z" fill="#F44322"/>
</svg>
