<svg width="53" height="36" viewBox="0 0 53 36" fill="none" xmlns="http://www.w3.org/2000/svg">
<path d="M1 34.2512L9.23672 16.6546H42.9324L51.5435 35L1 34.2512Z" stroke="#D93F22" stroke-width="0.748793"/>
<path d="M5.86719 23.7681C7.11518 23.8929 10.5846 23.3937 14.4783 20.3985C15.8511 20.0241 19.2706 19.7246 21.9662 21.5217C24.4622 26.3888 33.1981 34.5507 48.174 28.2608M33.5725 17.0289C33.3229 19.2753 35.2947 23.5434 45.1788 22.6449" stroke="#F44322" stroke-width="0.748793" stroke-dasharray="1.5 1.5"/>
<path d="M18.2222 16.6546V34.6256" stroke="#F44322" stroke-width="0.748793"/>
<path d="M30.05 10.5214L23.0358 24.1116L15.8023 9.64466C14.0487 3.33181 19.1633 0.584531 21.9398 0C29.8308 -1.88857e-05 30.9268 5.69906 30.05 10.5214Z" fill="#F44322"/>
<circle cx="22.896" cy="7.2668" r="3.40987" fill="white"/>
</svg>
