<svg width="118" height="26" viewBox="0 0 118 26" fill="none" xmlns="http://www.w3.org/2000/svg">
<path d="M1 24.3842L6.86392 11.8567H30.8527L36.9832 24.9172L1 24.3842Z" stroke="#D93F22" stroke-width="0.533084"/>
<path d="M4.46509 16.9211C5.35356 17.0099 7.82352 16.6545 10.5956 14.5222C11.5729 14.2556 14.0073 14.0424 15.9264 15.3218C17.7033 18.7868 23.9227 24.5975 34.5843 20.1196M24.1892 12.1233C24.0115 13.7225 25.4153 16.7611 32.452 16.1214" stroke="#F44322" stroke-width="0.533084" stroke-dasharray="1.07 1.07"/>
<path d="M13.261 11.8567V24.6507" stroke="#F44322" stroke-width="0.533084"/>
<path d="M21.6814 7.49044L16.6877 17.1657L11.538 6.86627C10.2896 2.37199 13.9308 0.416142 15.9075 0C21.5253 -1.34452e-05 22.3056 4.0573 21.6814 7.49044Z" fill="#F44322"/>
<circle cx="16.5882" cy="5.17342" r="2.42757" fill="white"/>
<path d="M42.2517 25.0966C41.8588 25.0966 41.5597 24.9941 41.3547 24.7891C41.1497 24.567 41.0472 24.2594 41.0472 23.8664V8.87331H35.4343C35.1097 8.87331 34.8534 8.78788 34.6655 8.61701C34.4775 8.42907 34.3835 8.17277 34.3835 7.84814C34.3835 7.5235 34.4775 7.27575 34.6655 7.10489C34.8534 6.93402 35.1097 6.84859 35.4343 6.84859H49.0435C49.3852 6.84859 49.6415 6.93402 49.8124 7.10489C50.0003 7.27575 50.0943 7.5235 50.0943 7.84814C50.0943 8.17277 50.0003 8.42907 49.8124 8.61701C49.6415 8.78788 49.3852 8.87331 49.0435 8.87331H43.4307V23.8664C43.4307 24.2594 43.3282 24.567 43.1231 24.7891C42.9352 24.9941 42.6447 25.0966 42.2517 25.0966Z" fill="#F44322"/>
<path d="M51.1265 25.0966C50.7335 25.0966 50.4345 24.9941 50.2295 24.7891C50.0244 24.5841 49.9219 24.2851 49.9219 23.8921V13.4353C49.9219 13.0423 50.0244 12.7519 50.2295 12.5639C50.4345 12.3589 50.7164 12.2564 51.0752 12.2564C51.434 12.2564 51.7074 12.3589 51.8954 12.5639C52.1004 12.7519 52.2029 13.0423 52.2029 13.4353V15.4088H51.9466C52.22 14.3836 52.7326 13.6062 53.4844 13.0765C54.2362 12.5468 55.1845 12.2478 56.3292 12.1795C56.6026 12.1624 56.8247 12.2307 56.9956 12.3845C57.1665 12.5212 57.2604 12.7604 57.2775 13.1021C57.2946 13.4268 57.2177 13.6916 57.0468 13.8966C56.876 14.0846 56.6111 14.1957 56.2523 14.2298L55.791 14.2555C54.6633 14.3751 53.7919 14.7424 53.1768 15.3575C52.5788 15.9726 52.2798 16.8184 52.2798 17.8948V23.8921C52.2798 24.2851 52.1773 24.5841 51.9722 24.7891C51.7843 24.9941 51.5024 25.0966 51.1265 25.0966Z" fill="#F44322"/>
<path d="M63.13 25.1479C62.2757 25.1479 61.4983 24.977 60.7977 24.6353C60.1143 24.2936 59.5761 23.8323 59.1831 23.2513C58.8072 22.6704 58.6192 22.0211 58.6192 21.3035C58.6192 20.3809 58.8499 19.6547 59.3112 19.125C59.7726 18.5954 60.55 18.2195 61.6435 17.9973C62.737 17.7581 64.2064 17.6385 66.0517 17.6385H67.2563V19.125H66.103C64.7874 19.125 63.7451 19.1848 62.9762 19.3044C62.2244 19.424 61.6948 19.6376 61.3872 19.9452C61.0797 20.2356 60.9259 20.6457 60.9259 21.1754C60.9259 21.8417 61.1565 22.3885 61.6179 22.8156C62.0963 23.2428 62.7456 23.4564 63.5657 23.4564C64.215 23.4564 64.7874 23.3026 65.2829 22.995C65.7784 22.6704 66.1713 22.2433 66.4618 21.7136C66.7523 21.1668 66.8975 20.5432 66.8975 19.8426V16.8953C66.8975 15.8872 66.6925 15.161 66.2824 14.7168C65.8723 14.2555 65.1803 14.0248 64.2064 14.0248C63.6426 14.0248 63.0617 14.1017 62.4636 14.2555C61.8656 14.4092 61.242 14.6484 60.5927 14.9731C60.3364 15.0927 60.1143 15.1354 59.9263 15.1012C59.7384 15.05 59.5846 14.9474 59.465 14.7937C59.3625 14.6228 59.3027 14.4434 59.2856 14.2555C59.2856 14.0504 59.3283 13.8539 59.4138 13.666C59.5163 13.478 59.6871 13.3413 59.9263 13.2559C60.6781 12.88 61.4214 12.6152 62.1561 12.4614C62.9079 12.2905 63.6084 12.2051 64.2577 12.2051C65.3683 12.2051 66.2824 12.3845 67 12.7433C67.7176 13.0851 68.2559 13.6233 68.6147 14.358C68.9735 15.0756 69.1529 15.9983 69.1529 17.1259V23.8921C69.1529 24.2851 69.0589 24.5841 68.871 24.7891C68.683 24.9941 68.4096 25.0966 68.0508 25.0966C67.7091 25.0966 67.4357 24.9941 67.2307 24.7891C67.0427 24.5841 66.9488 24.2851 66.9488 23.8921V22.0724H67.1794C67.0427 22.7046 66.7864 23.2513 66.4105 23.7127C66.0347 24.174 65.5648 24.5328 65.0009 24.7891C64.4542 25.0283 63.8305 25.1479 63.13 25.1479Z" fill="#F44322"/>
<path d="M78.2309 25.1479C76.9665 25.1479 75.873 24.8831 74.9503 24.3534C74.0277 23.8066 73.3186 23.0463 72.8231 22.0724C72.3276 21.0814 72.0798 19.9195 72.0798 18.5868C72.0798 17.5958 72.2165 16.7073 72.4899 15.9214C72.7804 15.1354 73.1904 14.469 73.7201 13.9223C74.2498 13.3584 74.8905 12.9313 75.6423 12.6408C76.4112 12.3503 77.274 12.2051 78.2309 12.2051C78.8289 12.2051 79.4611 12.2991 80.1274 12.487C80.7938 12.675 81.4089 12.9825 81.9727 13.4097C82.1607 13.5464 82.2803 13.7087 82.3315 13.8966C82.3828 14.0675 82.3828 14.2469 82.3315 14.4349C82.2974 14.6228 82.2119 14.7851 82.0753 14.9218C81.9556 15.0414 81.7933 15.1098 81.5883 15.1269C81.4003 15.1439 81.1953 15.0841 80.9732 14.9474C80.5631 14.6399 80.1274 14.4178 79.6661 14.2811C79.2219 14.1444 78.7947 14.0761 78.3846 14.0761C77.7524 14.0761 77.1886 14.1786 76.6931 14.3836C76.2147 14.5886 75.8046 14.8876 75.4629 15.2806C75.1383 15.6565 74.8905 16.1264 74.7196 16.6902C74.5488 17.237 74.4634 17.8777 74.4634 18.6124C74.4634 20.0648 74.8051 21.2095 75.4885 22.0468C76.172 22.8669 77.1373 23.277 78.3846 23.277C78.7947 23.277 79.2219 23.2172 79.6661 23.0976C80.1103 22.9609 80.546 22.7388 80.9732 22.4312C81.1953 22.2945 81.4003 22.2433 81.5883 22.2774C81.7762 22.2945 81.93 22.3714 82.0496 22.5081C82.1863 22.6277 82.2717 22.7815 82.3059 22.9694C82.3401 23.1403 82.323 23.3197 82.2547 23.5076C82.2034 23.6956 82.0838 23.8494 81.8958 23.969C81.3491 24.379 80.7511 24.678 80.1018 24.866C79.4525 25.0539 78.8289 25.1479 78.2309 25.1479Z" fill="#F44322"/>
<path d="M85.89 25.0966C85.5312 25.0966 85.2493 24.9941 85.0442 24.7891C84.8392 24.5841 84.7367 24.2851 84.7367 23.8921V7.84814C84.7367 7.45515 84.8392 7.16469 85.0442 6.97674C85.2493 6.77171 85.5312 6.66919 85.89 6.66919C86.2659 6.66919 86.5564 6.77171 86.7614 6.97674C86.9664 7.16469 87.069 7.45515 87.069 7.84814V17.9461H87.1202L92.1436 13.0509C92.3998 12.7946 92.6305 12.5981 92.8355 12.4614C93.0406 12.3247 93.3054 12.2564 93.6301 12.2564C93.9547 12.2564 94.2024 12.3418 94.3733 12.5127C94.5442 12.6664 94.6296 12.8715 94.6296 13.1278C94.6296 13.367 94.51 13.6062 94.2708 13.8454L88.9399 19.0225V17.8692L94.7577 23.482C94.997 23.7212 95.108 23.969 95.0909 24.2253C95.0909 24.4815 94.997 24.6951 94.809 24.866C94.6381 25.0198 94.4075 25.0966 94.117 25.0966C93.7753 25.0966 93.4934 25.0283 93.2712 24.8916C93.0662 24.7549 92.827 24.5413 92.5536 24.2509L87.1202 19.125H87.069V23.8921C87.069 24.6951 86.676 25.0966 85.89 25.0966Z" fill="#F44322"/>
<path d="M105.588 25.0454C105.229 25.0454 104.947 24.9343 104.742 24.7122C104.537 24.4901 104.434 24.1825 104.434 23.7896V13.5635C104.434 13.1534 104.537 12.8458 104.742 12.6408C104.947 12.4187 105.229 12.3076 105.588 12.3076C105.963 12.3076 106.254 12.4187 106.459 12.6408C106.664 12.8458 106.766 13.1534 106.766 13.5635V23.7896C106.766 24.1825 106.664 24.4901 106.459 24.7122C106.271 24.9343 105.981 25.0454 105.588 25.0454ZM105.588 9.53967C105.126 9.53967 104.759 9.42007 104.485 9.18086C104.229 8.92457 104.101 8.59139 104.101 8.18132C104.101 7.73708 104.229 7.4039 104.485 7.18177C104.759 6.94257 105.126 6.82296 105.588 6.82296C106.083 6.82296 106.45 6.94257 106.69 7.18177C106.946 7.4039 107.074 7.73708 107.074 8.18132C107.074 8.59139 106.946 8.92457 106.69 9.18086C106.45 9.42007 106.083 9.53967 105.588 9.53967Z" fill="#F44322"/>
<path d="M115.693 25.1479C114.685 25.1479 113.839 24.9685 113.156 24.6097C112.49 24.2509 111.986 23.7298 111.644 23.0463C111.319 22.3629 111.157 21.5256 111.157 20.5346V14.2298H109.517C109.209 14.2298 108.97 14.1529 108.799 13.9992C108.628 13.8283 108.543 13.6062 108.543 13.3328C108.543 13.0423 108.628 12.8202 108.799 12.6664C108.97 12.5127 109.209 12.4358 109.517 12.4358H111.157V9.64219C111.157 9.2492 111.259 8.95874 111.464 8.77079C111.669 8.56576 111.96 8.46324 112.336 8.46324C112.712 8.46324 112.994 8.56576 113.182 8.77079C113.387 8.95874 113.489 9.2492 113.489 9.64219V12.4358H116.59C116.915 12.4358 117.163 12.5127 117.334 12.6664C117.504 12.8202 117.59 13.0423 117.59 13.3328C117.59 13.6062 117.504 13.8283 117.334 13.9992C117.163 14.1529 116.915 14.2298 116.59 14.2298H113.489V20.3296C113.489 21.2693 113.686 21.9784 114.079 22.4568C114.472 22.9352 115.121 23.1745 116.026 23.1745C116.351 23.1745 116.624 23.1488 116.847 23.0976C117.069 23.0292 117.265 22.995 117.436 22.995C117.59 22.978 117.718 23.0292 117.821 23.1488C117.94 23.2684 118 23.4905 118 23.8152C118 24.0544 117.957 24.2765 117.872 24.4815C117.803 24.6695 117.658 24.7976 117.436 24.866C117.231 24.9343 116.958 24.9941 116.616 25.0454C116.274 25.1137 115.967 25.1479 115.693 25.1479Z" fill="#F44322"/>
</svg>
