<svg width="1290" height="353" viewBox="0 0 1440 373" fill="none" xmlns="http://www.w3.org/2000/svg">
<path d="M2381.64 760.038C2314.61 439.514 1845.49 264.565 1503.65 291.585C1109.71 322.763 979.979 614.669 674.208 548.98C395.181 489.129 360.655 215.28 156.469 185.419C-31.1822 157.985 -312.783 343.788 -740.135 1198.84" stroke="white" stroke-opacity="0.1" stroke-miterlimit="10"/>
<path d="M-714.698 1233.76C-292.411 390.994 -11.0728 198.759 178.709 218.647C319.378 233.577 381.897 363.492 497.672 460.568C555.566 510.653 624.989 545.573 699.707 562.193C944.463 616.821 1077.06 450.801 1329.07 366.528C1393.29 344.85 1459.83 330.798 1527.33 324.661C1870.23 292.354 2332.44 440.284 2405.71 748.558" stroke="white" stroke-opacity="0.1" stroke-miterlimit="10"/>
<path d="M-689.212 1268.56C-271.987 438.14 8.9258 239.54 200.451 251.964C341.238 261.109 406.513 384.446 522.156 476.203C581.222 524.269 650.479 558.211 724.648 575.442C966.021 631.474 1099.6 480.98 1352.71 399.774C1417.02 378.999 1483.31 364.941 1550.52 357.825C1894.59 321.29 2349.76 441.088 2429.28 737.109" stroke="white" stroke-opacity="0.1" stroke-miterlimit="10"/>
<path d="M-663.79 1303.26C-251.727 485.354 28.9305 280.434 222.411 285.212C363.435 288.677 431.235 405.339 546.918 491.821C607.033 537.845 676.076 570.836 749.644 588.689C987.858 646.11 1121.92 511.12 1376.41 433.018C1440.83 412.997 1506.94 398.869 1573.92 390.808C1919.07 349.433 2367.24 441.714 2453.01 725.484" stroke="white" stroke-opacity="0.1" stroke-miterlimit="10"/>
<path d="M-638.35 1338.24C-231.36 532.505 48.8279 321.39 244.432 318.511C385.528 316.362 456.132 426.332 571.788 507.376C632.996 551.381 701.947 583.452 775.03 601.909C1010.09 660.719 1144.79 541.277 1400.78 466.216C1465.19 447.113 1530.98 432.999 1597.56 423.999C1943.84 377.781 2385.02 442.6 2477.09 714.114" stroke="white" stroke-opacity="0.1" stroke-miterlimit="10"/>
<path d="M-613.14 1373.12C-211.048 579.659 68.5301 356.919 266.448 351.754C407.712 347.912 481.004 446.933 596.55 522.993C658.815 564.896 727.672 596.045 800.25 615.14C1032.15 675.339 1167.39 571.453 1424.48 499.514C1488.92 481.179 1554.48 467.014 1620.75 457.108C1968.15 405.824 2402.34 443.347 2500.65 702.666" stroke="white" stroke-opacity="0.1" stroke-miterlimit="10"/>
<path d="M-587.427 1407.97C-190.676 626.865 88.6491 403.693 288.391 384.722C429.511 372.028 506.01 467.862 621.373 538.662C684.628 578.451 753.401 608.697 825.473 628.427C1054.21 690.016 1190.15 601.617 1448.41 532.798C1512.89 515.297 1578.23 501.116 1644.16 490.313C1992.7 434.186 2419.88 444.025 2524.45 691.259" stroke="white" stroke-opacity="0.1" stroke-miterlimit="10"/>
<path d="M-561.994 1442.83C-170.476 674.026 108.482 444.542 310.429 418.3C451.495 399.777 531.092 488.281 646.186 554.22C710.38 591.856 779.096 621.181 850.681 641.49C1076.21 704.528 1212.86 631.73 1472.32 565.858C1532.69 550.602 1597.23 535.516 1667.56 523.24C2017.27 462.099 2437.43 444.869 2548.24 679.741" stroke="white" stroke-opacity="0.1" stroke-miterlimit="10"/>
<path d="M-536.562 1477.7C-149.993 721.225 128.357 486.005 332.382 451.436C473.484 427.582 556.235 508.752 671.108 569.714C736.242 605.176 804.943 633.647 876.064 654.655C1098.43 719.081 1235.66 661.723 1496.4 599.075C1557.1 584.471 1621.48 569.508 1691.19 556.319C2041.58 490.253 2454.97 445.659 2572.02 668.223" stroke="white" stroke-opacity="0.1" stroke-miterlimit="10"/>
<path d="M-511.074 1512.5C-129.623 768.375 148.227 527.355 354.412 484.846C495.498 455.721 581.667 529.316 695.765 585.394C761.754 618.663 830.433 646.3 901.069 668.012C1120.33 733.824 1258.22 692.014 1520.15 632.202C1580.9 618.268 1645.33 603.301 1714.42 589.256C2066.31 517.93 2472.5 446.112 2595.8 656.48" stroke="white" stroke-opacity="0.1" stroke-miterlimit="10"/>
<path d="M-485.642 1547.37C-109.313 815.529 168.101 568.818 376.26 518.101C517.333 483.761 606.69 549.683 720.474 601.071C787.301 632.066 856.003 658.844 926.176 681.251C1142.22 748.456 1280.75 722.138 1543.98 665.717C1605.06 652.545 1669.32 637.534 1737.74 622.693C2090.74 546.133 2489.9 447.192 2619.55 645.301" stroke="white" stroke-opacity="0.1" stroke-miterlimit="10"/>
<path d="M-460.209 1582.24C-88.9411 862.736 188.088 610.274 398.388 551.337C539.509 511.834 632.101 569.969 745.348 616.682C810.445 643.51 877.069 670.516 951.507 694.475C1164.39 763.013 1303.57 752.3 1568.02 698.938C1629.31 686.481 1693.45 671.421 1761.37 655.773C2115.48 573.979 2507.66 447.911 2643.51 633.828" stroke="white" stroke-opacity="0.1" stroke-miterlimit="10"/>
</svg>
